<svg width="14" height="15" viewBox="0 0 14 15" fill="none" xmlns="http://www.w3.org/2000/svg">
<path d="M9.12097 4.81815L4.87897 9.0609C4.80734 9.13009 4.7502 9.21285 4.7109 9.30435C4.67159 9.39585 4.6509 9.49427 4.65003 9.59385C4.64917 9.69344 4.66814 9.7922 4.70586 9.88437C4.74357 9.97654 4.79926 10.0603 4.86968 10.1307C4.94009 10.2011 5.02383 10.2568 5.11601 10.2945C5.20818 10.3322 5.30694 10.3512 5.40652 10.3503C5.50611 10.3495 5.60452 10.3288 5.69602 10.2895C5.78753 10.2502 5.87029 10.193 5.93947 10.1214L10.1822 5.8794C10.6042 5.45741 10.8413 4.88507 10.8413 4.28828C10.8413 3.69149 10.6042 3.11915 10.1822 2.69715C9.76023 2.27516 9.18788 2.03809 8.5911 2.03809C7.99431 2.03809 7.42196 2.27516 6.99997 2.69715L2.75722 6.9399C2.40178 7.2865 2.11869 7.70022 1.92439 8.15708C1.73009 8.61393 1.62843 9.10482 1.62532 9.60126C1.62221 10.0977 1.71771 10.5898 1.90627 11.0491C2.09483 11.5083 2.37271 11.9256 2.72378 12.2766C3.07486 12.6276 3.49213 12.9054 3.95141 13.0939C4.41069 13.2824 4.90283 13.3779 5.39927 13.3747C5.89572 13.3715 6.38659 13.2698 6.84342 13.0754C7.30024 12.881 7.71393 12.5979 8.06047 12.2424L12.3032 8.0004L13.3637 9.0609L9.12097 13.3037C8.63344 13.7912 8.05465 14.1779 7.41766 14.4418C6.78067 14.7056 6.09795 14.8414 5.40847 14.8414C4.719 14.8414 4.03627 14.7056 3.39928 14.4418C2.76229 14.1779 2.1835 13.7912 1.69597 13.3037C1.20844 12.8161 0.821707 12.2373 0.557856 11.6003C0.294005 10.9634 0.158203 10.2806 0.158203 9.59115C0.158203 8.90168 0.294005 8.21896 0.557856 7.58196C0.821707 6.94497 1.20844 6.36619 1.69597 5.87865L5.93947 1.63665C6.64673 0.953561 7.59399 0.575582 8.57723 0.584126C9.56046 0.59267 10.501 0.987054 11.1963 1.68233C11.8916 2.37761 12.286 3.31816 12.2945 4.3014C12.303 5.28464 11.9251 6.2319 11.242 6.93915L6.99997 11.1834C6.79097 11.3924 6.54286 11.5581 6.26981 11.6712C5.99676 11.7842 5.70412 11.8424 5.40858 11.8424C5.11305 11.8423 4.82041 11.7841 4.54739 11.671C4.27436 11.5578 4.0263 11.392 3.81735 11.183C3.6084 10.974 3.44266 10.7259 3.32959 10.4529C3.21653 10.1798 3.15836 9.88717 3.15839 9.59164C3.15843 9.29611 3.21667 9.00347 3.3298 8.73045C3.44293 8.45742 3.60872 8.20935 3.81772 8.0004L8.06047 3.75765L9.12097 4.81815Z" fill="url(#paint0_linear_432_1761)"/>
<defs>
<linearGradient id="paint0_linear_432_1761" x1="0.158203" y1="7.7127" x2="13.3637" y2="7.7127" gradientUnits="userSpaceOnUse">
<stop stop-color="#6464AE"/>
<stop offset="1" stop-color="#7F67BE"/>
</linearGradient>
</defs>
</svg>
