<svg width="15" height="17" viewBox="0 0 15 17" fill="none" xmlns="http://www.w3.org/2000/svg">
<path d="M2.46885 5.50398C2.79627 5.1935 3.1866 5.04975 3.57455 5.03012L3.67314 5.02778H3.73019H4.31989H4.32623H4.91593H10.564H10.9495H11.2931H11.7216H11.8474C12.5539 5.02778 13.412 5.50471 13.7799 6.9649L13.8177 7.12849L14.4339 12.0929L14.4339 12.0929L14.435 12.1007C14.6443 13.5954 14.3293 14.5586 13.7836 15.1551C13.2306 15.7596 12.3546 16.0824 11.2501 16.1093L11.0969 16.1111H4.42187C3.25274 16.1111 2.3431 15.8935 1.76827 15.3671C1.21779 14.863 0.859048 13.9642 1.05288 12.3089L1.08041 12.0952L1.08061 12.0936L1.70558 7.11572C1.84633 6.32222 2.14075 5.81511 2.46885 5.50398ZM4.42355 4.44082L4.32306 5.00983L4.22257 4.44082C4.22211 4.43821 4.22211 4.43555 4.22257 4.43294L4.22836 4.40017L4.22975 4.36692C4.30855 2.48665 5.86161 1 7.75398 1C9.51717 1 10.9858 2.2906 11.2418 3.9877L11.2562 4.34369L11.1341 4.61608L11.0304 4.34763C11.0295 4.3454 11.029 4.34309 11.0289 4.34078C11.0261 2.52076 9.54517 1.04914 7.72241 1.04914C5.89791 1.04914 4.41593 2.52357 4.41593 4.34598V4.38979L4.42355 4.43294C4.42401 4.43555 4.42401 4.43821 4.42355 4.44082ZM6.62341 7.94247V7.9274L6.6225 7.91235L6.61696 7.82044L6.61604 7.80528L6.61421 7.79021C6.54151 7.19233 6.04146 6.70971 5.41147 6.70971C4.72864 6.70971 4.19953 7.27532 4.19953 7.94247C4.19953 8.60962 4.72864 9.17524 5.41147 9.17524C6.0943 9.17524 6.62341 8.60962 6.62341 7.94247ZM10.0747 6.70971C9.39186 6.70971 8.86274 7.27532 8.86274 7.94247C8.86274 8.60962 9.39186 9.17524 10.0747 9.17524C10.7575 9.17524 11.2866 8.60962 11.2866 7.94247C11.2866 7.27532 10.7575 6.70971 10.0747 6.70971Z" stroke="black"/>
</svg>
