<svg width="13" height="14" viewBox="0 0 13 14" fill="none" xmlns="http://www.w3.org/2000/svg">
<path d="M1.16675 3.16667C0.890606 3.16667 0.666748 3.39052 0.666748 3.66667C0.666748 3.94281 0.890606 4.16667 1.16675 4.16667V3.16667ZM11.8334 4.16667C12.1096 4.16667 12.3334 3.94281 12.3334 3.66667C12.3334 3.39052 12.1096 3.16667 11.8334 3.16667V4.16667ZM5.66675 6.33333C5.66675 6.05719 5.44289 5.83333 5.16675 5.83333C4.89061 5.83333 4.66675 6.05719 4.66675 6.33333H5.66675ZM4.66675 10.3333C4.66675 10.6095 4.89061 10.8333 5.16675 10.8333C5.44289 10.8333 5.66675 10.6095 5.66675 10.3333H4.66675ZM8.33341 6.33333C8.33341 6.05719 8.10956 5.83333 7.83341 5.83333C7.55727 5.83333 7.33341 6.05719 7.33341 6.33333H8.33341ZM7.33341 10.3333C7.33341 10.6095 7.55727 10.8333 7.83341 10.8333C8.10956 10.8333 8.33341 10.6095 8.33341 10.3333H7.33341ZM2.33169 3.62514C2.30876 3.34996 2.06708 3.14546 1.79189 3.16839C1.5167 3.19133 1.31221 3.433 1.33514 3.70819L2.33169 3.62514ZM2.50008 11.6667H3.00008C3.00008 11.6528 2.99951 11.639 2.99835 11.6251L2.50008 11.6667ZM10.5001 11.6667L10.0018 11.6251C10.0007 11.639 10.0001 11.6528 10.0001 11.6667H10.5001ZM11.665 3.70819C11.688 3.433 11.4835 3.19133 11.2083 3.16839C10.9331 3.14546 10.6914 3.34996 10.6685 3.62514L11.665 3.70819ZM4.00008 3.66667C4.00008 3.94281 4.22394 4.16667 4.50008 4.16667C4.77622 4.16667 5.00008 3.94281 5.00008 3.66667H4.00008ZM5.16675 1V0.5V1ZM7.83341 1V0.5V1ZM8.00008 3.66667C8.00008 3.94281 8.22394 4.16667 8.50008 4.16667C8.77622 4.16667 9.00008 3.94281 9.00008 3.66667H8.00008ZM1.16675 4.16667H11.8334V3.16667H1.16675V4.16667ZM4.66675 6.33333V10.3333H5.66675V6.33333H4.66675ZM7.33341 6.33333V10.3333H8.33341V6.33333H7.33341ZM1.33514 3.70819L2.00181 11.7082L2.99835 11.6251L2.33169 3.62514L1.33514 3.70819ZM2.00008 11.6667C2.00008 12.1529 2.19324 12.6192 2.53705 12.963L3.24416 12.2559C3.08788 12.0996 3.00008 11.8877 3.00008 11.6667H2.00008ZM2.53705 12.963C2.88087 13.3068 3.34718 13.5 3.83341 13.5V12.5C3.6124 12.5 3.40044 12.4122 3.24416 12.2559L2.53705 12.963ZM3.83341 13.5H9.16675V12.5H3.83341V13.5ZM9.16675 13.5C9.65298 13.5 10.1193 13.3068 10.4631 12.963L9.756 12.2559C9.59972 12.4122 9.38776 12.5 9.16675 12.5V13.5ZM10.4631 12.963C10.8069 12.6192 11.0001 12.1529 11.0001 11.6667H10.0001C10.0001 11.8877 9.91228 12.0996 9.756 12.2559L10.4631 12.963ZM10.9984 11.7082L11.665 3.70819L10.6685 3.62514L10.0018 11.6251L10.9984 11.7082ZM5.00008 3.66667V1.66667H4.00008V3.66667H5.00008ZM5.00008 1.66667C5.00008 1.62246 5.01764 1.58007 5.0489 1.54882L4.34179 0.841709C4.123 1.0605 4.00008 1.35725 4.00008 1.66667H5.00008ZM5.0489 1.54882C5.08015 1.51756 5.12255 1.5 5.16675 1.5V0.5C4.85733 0.5 4.56058 0.622916 4.34179 0.841709L5.0489 1.54882ZM5.16675 1.5H7.83341V0.5H5.16675V1.5ZM7.83341 1.5C7.87762 1.5 7.92001 1.51756 7.95127 1.54882L8.65837 0.841709C8.43958 0.622916 8.14283 0.5 7.83341 0.5L7.83341 1.5ZM7.95127 1.54882C7.98252 1.58007 8.00008 1.62246 8.00008 1.66667H9.00008C9.00008 1.35725 8.87716 1.0605 8.65837 0.841709L7.95127 1.54882ZM8.00008 1.66667V3.66667H9.00008V1.66667H8.00008Z" fill="black"/>
</svg>
