<svg width="13" height="14" viewBox="0 0 13 14" fill="none" xmlns="http://www.w3.org/2000/svg">
<path d="M6.99988 4.33337C6.99988 4.05723 6.77602 3.83337 6.49988 3.83337C6.22374 3.83337 5.99988 4.05723 5.99988 4.33337H6.99988ZM6.49988 7.00004H5.99988C5.99988 7.13265 6.05256 7.25983 6.14632 7.35359L6.49988 7.00004ZM7.47966 8.68693C7.67492 8.88219 7.9915 8.88219 8.18676 8.68693C8.38203 8.49167 8.38203 8.17508 8.18676 7.97982L7.47966 8.68693ZM0.0357771 6.28271C0.00779343 6.55743 0.207813 6.80282 0.482534 6.83081C0.757255 6.85879 1.00265 6.65877 1.03063 6.38405L0.0357771 6.28271ZM1.33618 8.82849C1.24144 8.56911 0.954363 8.43565 0.694983 8.5304C0.435604 8.62514 0.302142 8.91222 0.396888 9.1716L1.33618 8.82849ZM0.0332031 12.3334C0.0332031 12.6095 0.257061 12.8334 0.533203 12.8334C0.809346 12.8334 1.0332 12.6095 1.0332 12.3334H0.0332031ZM0.533203 9.00005V8.50005C0.257061 8.50005 0.0332031 8.7239 0.0332031 9.00005H0.533203ZM3.86654 9.50005C4.14268 9.50005 4.36654 9.27619 4.36654 9.00005C4.36654 8.7239 4.14268 8.50005 3.86654 8.50005V9.50005ZM5.99988 4.33337V7.00004H6.99988V4.33337H5.99988ZM6.14632 7.35359L7.47966 8.68693L8.18676 7.97982L6.85343 6.64649L6.14632 7.35359ZM1.03063 6.38405C1.16757 5.03964 1.79468 3.7927 2.7923 2.88114L2.11775 2.14291C0.938745 3.22021 0.197621 4.69386 0.0357771 6.28271L1.03063 6.38405ZM2.7923 2.88114C3.78992 1.96958 5.08822 1.4572 6.4395 1.44177L6.42808 0.441831C4.83111 0.460071 3.29676 1.06561 2.11775 2.14291L2.7923 2.88114ZM6.4395 1.44177C7.79078 1.42633 9.10044 1.90892 10.1186 2.79746L10.7761 2.04401C9.57283 0.993922 8.02504 0.42359 6.42808 0.441831L6.4395 1.44177ZM10.1186 2.79746C11.1368 3.686 11.7922 4.91828 11.9598 6.25922L12.9521 6.13518C12.754 4.55044 11.9794 3.0941 10.7761 2.04401L10.1186 2.79746ZM11.9598 6.25922C12.1275 7.60015 11.7955 8.95585 11.0274 10.0677L11.8501 10.6361C12.7579 9.32212 13.1502 7.71992 12.9521 6.13518L11.9598 6.25922ZM11.0274 10.0677C10.2593 11.1795 9.10869 11.9696 7.79519 12.2873L8.03026 13.2593C9.58257 12.8839 10.9423 11.9501 11.8501 10.6361L11.0274 10.0677ZM7.79519 12.2873C6.48169 12.605 5.09721 12.4279 3.9059 11.79L3.43383 12.6715C4.84174 13.4255 6.47794 13.6347 8.03026 13.2593L7.79519 12.2873ZM3.9059 11.79C2.7146 11.152 1.79985 10.0978 1.33618 8.82849L0.396888 9.1716C0.944853 10.6717 2.02592 11.9176 3.43383 12.6715L3.9059 11.79ZM1.0332 12.3334V9.00005H0.0332031V12.3334H1.0332ZM0.533203 9.50005H3.86654V8.50005H0.533203V9.50005Z" fill="black"/>
</svg>
