<svg width="13" height="13" viewBox="0 0 13 13" fill="none" xmlns="http://www.w3.org/2000/svg">
<path d="M1.16675 1.83333C0.890606 1.83333 0.666748 2.05719 0.666748 2.33333C0.666748 2.60948 0.890606 2.83333 1.16675 2.83333V1.83333ZM5.83341 2.83333C6.10956 2.83333 6.33341 2.60948 6.33341 2.33333C6.33341 2.05719 6.10956 1.83333 5.83341 1.83333V2.83333ZM5.00008 1C5.00008 0.723858 4.77622 0.5 4.50008 0.5C4.22394 0.5 4.00008 0.723858 4.00008 1H5.00008ZM1.16675 7.16667C0.890606 7.16667 0.666748 7.39052 0.666748 7.66667C0.666748 7.94281 0.890606 8.16667 1.16675 8.16667V7.16667ZM2.33341 5C2.33341 4.72386 2.10956 4.5 1.83341 4.5C1.55727 4.5 1.33341 4.72386 1.33341 5H2.33341ZM6.28781 8.16652C6.56387 8.17329 6.79315 7.955 6.79993 7.67894C6.80671 7.40288 6.58841 7.17359 6.31235 7.16682L6.28781 8.16652ZM6.04318 12.1303C5.93102 12.3826 6.04467 12.6781 6.29701 12.7902C6.54935 12.9024 6.84483 12.7887 6.95699 12.5364L6.04318 12.1303ZM9.16675 6.33333L9.62365 6.13026C9.5434 5.9497 9.36434 5.83333 9.16675 5.83333C8.96915 5.83333 8.79009 5.9497 8.70984 6.13026L9.16675 6.33333ZM11.3765 12.5364C11.4887 12.7887 11.7841 12.9024 12.0365 12.7902C12.2888 12.6781 12.4025 12.3826 12.2903 12.1303L11.3765 12.5364ZM11.2334 11.5C11.5096 11.5 11.7334 11.2761 11.7334 11C11.7334 10.7239 11.5096 10.5 11.2334 10.5V11.5ZM7.10008 10.5C6.82393 10.5 6.60008 10.7239 6.60008 11C6.60008 11.2761 6.82393 11.5 7.10008 11.5V10.5ZM1.16675 2.83333H5.83341V1.83333H1.16675V2.83333ZM4.00008 1V2.33333H5.00008V1H4.00008ZM4.00008 2.33333C4.00008 3.72726 3.64587 4.9656 3.09967 5.83949C2.54905 6.72046 1.85245 7.16667 1.16675 7.16667V8.16667C2.32171 8.16667 3.29178 7.41887 3.94766 6.36951C4.60796 5.31307 5.00008 3.88474 5.00008 2.33333H4.00008ZM1.33341 5C1.33341 5.96367 1.99344 6.75012 2.87339 7.27561C3.76509 7.80812 4.96953 8.13416 6.28781 8.16652L6.31235 7.16682C5.13197 7.13784 4.10307 6.84521 3.38611 6.41705C2.65739 5.98188 2.33341 5.46566 2.33341 5H1.33341ZM6.95699 12.5364L9.62365 6.5364L8.70984 6.13026L6.04318 12.1303L6.95699 12.5364ZM8.70984 6.5364L11.3765 12.5364L12.2903 12.1303L9.62365 6.13026L8.70984 6.5364ZM11.2334 10.5H7.10008V11.5H11.2334V10.5Z" fill="black"/>
</svg>
