<svg width="11" height="14" viewBox="0 0 11 14" fill="none" xmlns="http://www.w3.org/2000/svg">
<path d="M2.16659 6.33333V6.83333V6.33333ZM0.833252 11.6667H0.333252H0.833252ZM2.33325 6.33333C2.33325 6.60948 2.55711 6.83333 2.83325 6.83333C3.10939 6.83333 3.33325 6.60948 3.33325 6.33333H2.33325ZM5.49992 1V0.5V1ZM8.16659 3.66667H8.66659H8.16659ZM7.66659 6.33333C7.66659 6.60948 7.89044 6.83333 8.16659 6.83333C8.44273 6.83333 8.66659 6.60948 8.66659 6.33333H7.66659ZM1.33325 7.66667C1.33325 7.44565 1.42105 7.23369 1.57733 7.07741L0.870223 6.3703C0.526406 6.71412 0.333252 7.18044 0.333252 7.66667H1.33325ZM1.57733 7.07741C1.73361 6.92113 1.94557 6.83333 2.16659 6.83333V5.83333C1.68035 5.83333 1.21404 6.02649 0.870223 6.3703L1.57733 7.07741ZM2.16659 6.83333H8.83325V5.83333H2.16659V6.83333ZM8.83325 6.83333C9.05427 6.83333 9.26623 6.92113 9.42251 7.07741L10.1296 6.3703C9.7858 6.02649 9.31948 5.83333 8.83325 5.83333V6.83333ZM9.42251 7.07741C9.57879 7.23369 9.66659 7.44565 9.66659 7.66667H10.6666C10.6666 7.18044 10.4734 6.71412 10.1296 6.3703L9.42251 7.07741ZM9.66659 7.66667V11.6667H10.6666V7.66667H9.66659ZM9.66659 11.6667C9.66659 11.8877 9.57879 12.0996 9.42251 12.2559L10.1296 12.963C10.4734 12.6192 10.6666 12.1529 10.6666 11.6667H9.66659ZM9.42251 12.2559C9.26623 12.4122 9.05427 12.5 8.83325 12.5V13.5C9.31948 13.5 9.7858 13.3068 10.1296 12.963L9.42251 12.2559ZM8.83325 12.5H2.16659V13.5H8.83325V12.5ZM2.16659 12.5C1.94557 12.5 1.73361 12.4122 1.57733 12.2559L0.870223 12.963C1.21404 13.3068 1.68035 13.5 2.16659 13.5V12.5ZM1.57733 12.2559C1.42105 12.0996 1.33325 11.8877 1.33325 11.6667H0.333252C0.333252 12.1529 0.526406 12.6192 0.870223 12.963L1.57733 12.2559ZM1.33325 11.6667V7.66667H0.333252V11.6667H1.33325ZM4.33325 9.66667C4.33325 9.97609 4.45617 10.2728 4.67496 10.4916L5.38207 9.78452C5.35081 9.75326 5.33325 9.71087 5.33325 9.66667H4.33325ZM4.67496 10.4916C4.89375 10.7104 5.1905 10.8333 5.49992 10.8333V9.83333C5.45572 9.83333 5.41332 9.81577 5.38207 9.78452L4.67496 10.4916ZM5.49992 10.8333C5.80934 10.8333 6.10608 10.7104 6.32488 10.4916L5.61777 9.78452C5.58651 9.81577 5.54412 9.83333 5.49992 9.83333V10.8333ZM6.32488 10.4916C6.54367 10.2728 6.66659 9.97609 6.66659 9.66667H5.66659C5.66659 9.71087 5.64903 9.75326 5.61777 9.78452L6.32488 10.4916ZM6.66659 9.66667C6.66659 9.35725 6.54367 9.0605 6.32488 8.84171L5.61777 9.54882C5.64903 9.58007 5.66659 9.62246 5.66659 9.66667H6.66659ZM6.32488 8.84171C6.10608 8.62292 5.80934 8.5 5.49992 8.5V9.5C5.54412 9.5 5.58651 9.51756 5.61777 9.54882L6.32488 8.84171ZM5.49992 8.5C5.1905 8.5 4.89375 8.62292 4.67496 8.84171L5.38207 9.54882C5.41332 9.51756 5.45572 9.5 5.49992 9.5V8.5ZM4.67496 8.84171C4.45617 9.0605 4.33325 9.35725 4.33325 9.66667H5.33325C5.33325 9.62246 5.35081 9.58007 5.38207 9.54882L4.67496 8.84171ZM3.33325 6.33333V3.66667H2.33325V6.33333H3.33325ZM3.33325 3.66667C3.33325 3.09203 3.56153 2.54093 3.96785 2.1346L3.26075 1.4275C2.66688 2.02136 2.33325 2.82681 2.33325 3.66667H3.33325ZM3.96785 2.1346C4.37418 1.72827 4.92528 1.5 5.49992 1.5V0.5C4.66007 0.5 3.85461 0.83363 3.26075 1.4275L3.96785 2.1346ZM5.49992 1.5C6.07455 1.5 6.62565 1.72827 7.03198 2.1346L7.73909 1.4275C7.14523 0.83363 6.33977 0.5 5.49992 0.5V1.5ZM7.03198 2.1346C7.43831 2.54093 7.66659 3.09203 7.66659 3.66667H8.66659C8.66659 2.82681 8.33296 2.02136 7.73909 1.4275L7.03198 2.1346ZM7.66659 3.66667V6.33333H8.66659V3.66667H7.66659Z" fill="black"/>
</svg>
