<svg width="17" height="16" viewBox="0 0 17 16" fill="none" xmlns="http://www.w3.org/2000/svg">
<path d="M8.34022 10.3602C9.64364 10.3602 10.7003 9.30357 10.7003 8.00015C10.7003 6.69676 9.64364 5.64014 8.34022 5.64014C7.03686 5.64014 5.98022 6.69676 5.98022 8.00015C5.98022 9.30357 7.03686 10.3602 8.34022 10.3602Z" stroke="black" stroke-width="0.96" stroke-linecap="square"/>
<path d="M12.6945 12.2981L12.4142 10.3523L14.2394 9.62216V6.37811L12.4149 5.64822L12.6952 3.70211L9.88574 2.08008L8.34046 3.29594L6.79515 2.08008L3.98572 3.70211L4.26598 5.64789L2.44067 6.37811V9.62216L4.26662 10.3527L3.98641 12.2981L6.79584 13.9201L8.34046 12.7048L9.8851 13.9201L12.6945 12.2981Z" stroke="black" stroke-width="0.96" stroke-linecap="square"/>
</svg>
