<svg width="46" height="45" viewBox="0 0 46 45" fill="none" xmlns="http://www.w3.org/2000/svg">
<rect x="0.5" width="45" height="45" rx="22.5" fill="#F9F9F9"/>
<path fill-rule="evenodd" clip-rule="evenodd" d="M22.9995 22.6719C25.8517 22.6719 28.1729 20.2786 28.1729 17.3365C28.1729 14.3933 25.8517 12 22.9995 12C20.1472 12 17.8271 14.3933 17.8271 17.3365C17.8271 20.2786 20.1472 22.6719 22.9995 22.6719Z" fill="#A0A0A0"/>
<path fill-rule="evenodd" clip-rule="evenodd" d="M30.8764 30.4317C29.8122 26.9601 26.9526 24.971 23.0277 24.971H22.9995C19.0642 24.9483 16.1899 26.9515 15.1236 30.4317L15 30.8358L15.3499 31.0562C17.4008 32.3463 19.9587 33 22.9502 33C22.9837 33 23.0173 33 23.0497 33C26.0832 33 28.5699 32.3636 30.6501 31.0562L31 30.8358L30.8764 30.4317Z" fill="#A0A0A0"/>
</svg>
